<svg width="20" height="20" viewBox="0 0 20 20" fill="none" xmlns="http://www.w3.org/2000/svg" stroke="currentColor" stroke-width="1.5" stroke-linecap="round" stroke-linejoin="round">
  <path d="M3.40007 12.4001C4.03661 12.4001 4.64708 12.1473 5.09718 11.6972C5.54728 11.2471 5.80015 10.6366 5.80015 10.0001C5.80015 9.36353 5.54728 8.75307 5.09718 8.30297C4.64708 7.85286 4.03661 7.6 3.40007 7.6C2.76353 7.6 2.15307 7.85286 1.70297 8.30297C1.25286 8.75307 1 9.36353 1 10.0001C1 10.6366 1.25286 11.2471 1.70297 11.6972C2.15307 12.1473 2.76353 12.4001 3.40007 12.4001Z"/>
  <path d="M16.5954 6.80017C17.2319 6.80017 17.8424 6.54731 18.2925 6.09721C18.7426 5.64711 18.9955 5.03664 18.9955 4.4001C18.9955 3.76356 18.7426 3.15309 18.2925 2.70299C17.8424 2.25289 17.2319 2.00003 16.5954 2.00003C15.9588 2.00002 15.3484 2.25289 14.8983 2.70299C14.4482 3.15309 14.1953 3.76356 14.1953 4.4001C14.1953 5.03664 14.4482 5.64711 14.8983 6.09721C15.3484 6.54731 15.9588 6.80017 16.5954 6.80017Z"/>
  <path d="M16.5954 18C17.2319 18 17.8424 17.7471 18.2925 17.297C18.7426 16.8469 18.9955 16.2365 18.9955 15.5999C18.9955 14.9634 18.7426 14.3529 18.2925 13.9028C17.8424 13.4527 17.2319 13.1999 16.5954 13.1999C15.9588 13.1999 15.3484 13.4527 14.8983 13.9028C14.4482 14.3529 14.1953 14.9634 14.1953 15.5999C14.1953 16.2365 14.4482 16.8469 14.8983 17.297C15.3484 17.7471 15.9588 18 16.5954 18Z"/>
  <path d="M5.79688 10.0001L7.19685 10.0001C7.93945 10.0001 8.65163 10.2951 9.17672 10.8202C9.70181 11.3452 9.99681 12.0574 9.99681 12.8C9.99681 13.5426 10.2918 14.2548 10.8169 14.7799C11.342 15.305 12.0542 15.6 12.7968 15.6L14.1967 15.6"/>
  <path d="M5.79688 10L7.19685 10C7.56455 10 7.92864 9.92758 8.26835 9.78687C8.60805 9.64616 8.91672 9.43991 9.17672 9.17991C9.70181 8.65482 9.99681 7.94264 9.99681 7.20004C9.99681 6.45745 10.2918 5.74527 10.8169 5.22018C11.342 4.69509 12.0542 4.40009 12.7968 4.40009L14.1967 4.40009"/>
</svg>
