<svg width="36" height="36" viewBox="0 0 36 36" fill="none" xmlns="http://www.w3.org/2000/svg" stroke="currentColor" stroke-width="1.5" stroke-linecap="round" stroke-linejoin="round">
  <path d="M31.1343 21.1696C32.3207 20.6207 33.3195 19.735 34.0063 18.6227C34.6931 17.5103 35.0375 16.2206 34.9968 14.9139C34.9823 13.9356 34.7707 12.9702 34.3747 12.0756C33.9786 11.1809 33.4063 10.3752 32.6918 9.70672C31.9773 9.03825 31.1354 8.52069 30.2163 8.18499C29.2973 7.84929 28.32 7.70234 27.3429 7.75291C26.4801 6.01612 25.1473 4.55629 23.496 3.53945C21.8446 2.5226 19.9411 1.98955 18.0019 2.00092C15.4045 1.96607 12.8916 2.92304 10.9754 4.67678C9.05921 6.43051 7.8839 8.84899 7.68907 11.4393C6.89422 11.2645 6.0705 11.2683 5.27728 11.4503C4.48406 11.6323 3.7411 11.988 3.10194 12.4918C2.46278 12.9956 1.94335 13.6349 1.58109 14.3636C1.21882 15.0924 1.02275 15.8924 1.00699 16.7061C0.944788 17.8721 1.29909 19.0222 2.00663 19.9511C2.71417 20.8799 3.72885 21.527 4.86947 21.7768"/>
  <path d="M8.73047 25.1774C8.73047 27.6359 9.70712 29.9938 11.4456 31.7322C13.184 33.4707 15.5419 34.4473 18.0004 34.4473C20.4589 34.4473 22.8168 33.4707 24.5552 31.7322C26.2937 29.9938 27.2703 27.6359 27.2703 25.1774C27.2703 22.7189 26.2937 20.361 24.5552 18.6226C22.8168 16.8841 20.4589 15.9075 18.0004 15.9075C15.5419 15.9075 13.184 16.8841 11.4456 18.6226C9.70712 20.361 8.73047 22.7189 8.73047 25.1774Z"/>
  <path d="M22.1336 22.4827L17.6532 28.468C17.5535 28.6006 17.4265 28.7104 17.2808 28.7898C17.1351 28.8691 16.974 28.9163 16.8084 28.928C16.6429 28.9397 16.4768 28.9157 16.3213 28.8577C16.1659 28.7996 16.0247 28.7089 15.9073 28.5916L13.5898 26.2741"/>
</svg>
