<svg width="36" height="36" viewBox="0 0 36 36" fill="none" xmlns="http://www.w3.org/2000/svg" stroke="currentColor" stroke-width="1.5" stroke-linecap="round" stroke-linejoin="round">
  <path d="M16 20C16 20.5304 16.2107 21.0391 16.5858 21.4142C16.9609 21.7893 17.4696 22 18 22C18.5304 22 19.0391 21.7893 19.4142 21.4142C19.7893 21.0391 20 20.5304 20 20C20 19.4696 19.7893 18.9609 19.4142 18.5858C19.0391 18.2107 18.5304 18 18 18C17.4696 18 16.9609 18.2107 16.5858 18.5858C16.2107 18.9609 16 19.4696 16 20Z"/>
  <path d="M19.2757 13.9885L19.7185 15.4929C19.7916 15.7428 19.9536 15.9547 20.1717 16.0857C20.3899 16.2166 20.6479 16.257 20.8937 16.1985L22.366 15.8441C22.6452 15.7792 22.9371 15.8085 23.199 15.9277C23.461 16.047 23.6792 16.2499 23.8218 16.5067C23.9643 16.7636 24.0238 17.061 23.9914 17.3554C23.959 17.6498 23.8365 17.9257 23.6418 18.1428L22.6107 19.2944C22.4393 19.4865 22.3441 19.7385 22.3441 20C22.3441 20.2615 22.4393 20.5135 22.6107 20.7056L23.6418 21.8572C23.8365 22.0743 23.959 22.3502 23.9914 22.6446C24.0238 22.939 23.9643 23.2364 23.8218 23.4933C23.6792 23.7501 23.461 23.953 23.199 24.0723C22.9371 24.1915 22.6452 24.2208 22.366 24.1559L20.8937 23.8015C20.6479 23.743 20.3899 23.7834 20.1717 23.9143C19.9536 24.0453 19.7916 24.2572 19.7185 24.5071L19.2757 26.0115C19.1947 26.2969 19.0266 26.5473 18.7967 26.7255C18.5667 26.9037 18.2872 27 18 27C17.7128 27 17.4333 26.9037 17.2033 26.7255C16.9734 26.5473 16.8053 26.2969 16.7243 26.0115L16.2815 24.5071C16.2084 24.2572 16.0464 24.0453 15.8283 23.9143C15.6101 23.7834 15.3521 23.743 15.1063 23.8015L13.634 24.1559C13.3548 24.2208 13.0629 24.1915 12.801 24.0723C12.539 23.953 12.3208 23.7501 12.1782 23.4933C12.0357 23.2364 11.9762 22.939 12.0086 22.6446C12.041 22.3502 12.1635 22.0743 12.3582 21.8572L13.3893 20.7056C13.5607 20.5135 13.6559 20.2615 13.6559 20C13.6559 19.7385 13.5607 19.4865 13.3893 19.2944L12.3582 18.1428C12.1635 17.9257 12.041 17.6498 12.0086 17.3554C11.9762 17.061 12.0357 16.7636 12.1782 16.5067C12.3208 16.2499 12.539 16.047 12.801 15.9277C13.0629 15.8085 13.3548 15.7792 13.634 15.8441L15.1063 16.1985C15.3521 16.257 15.6101 16.2166 15.8283 16.0857C16.0464 15.9547 16.2084 15.7428 16.2815 15.4929L16.7243 13.9885C16.8053 13.7031 16.9734 13.4526 17.2033 13.2745C17.4333 13.0963 17.7128 13 18 13C18.2872 13 18.5667 13.0963 18.7967 13.2745C19.0266 13.4526 19.1947 13.7031 19.2757 13.9885Z"/>
  <path d="M15 4C15 4.79565 15.3161 5.55871 15.8787 6.12132C16.4413 6.68393 17.2044 7 18 7C18.7956 7 19.5587 6.68393 20.1213 6.12132C20.6839 5.55871 21 4.79565 21 4C21 3.20435 20.6839 2.44129 20.1213 1.87868C19.5587 1.31607 18.7956 1 18 1C17.2044 1 16.4413 1.31607 15.8787 1.87868C15.3161 2.44129 15 3.20435 15 4Z"/>
  <path d="M24 11C23.66 10.142 22.8857 9.3814 21.7992 8.83815C20.7127 8.2949 19.3759 8 18 8C16.6241 8 15.2873 8.2949 14.2008 8.83815C13.1143 9.3814 12.34 10.142 12 11"/>
  <path d="M27 26C27 26.7956 27.3161 27.5587 27.8787 28.1213C28.4413 28.6839 29.2044 29 30 29C30.7956 29 31.5587 28.6839 32.1213 28.1213C32.6839 27.5587 33 26.7956 33 26C33 25.2044 32.6839 24.4413 32.1213 23.8787C31.5587 23.3161 30.7956 23 30 23C29.2044 23 28.4413 23.3161 27.8787 23.8787C27.3161 24.4413 27 25.2044 27 26Z"/>
  <path d="M35 35C34.7167 33.5701 34.0714 32.3023 33.166 31.3969C32.2605 30.4915 31.1466 30 30 30C28.8534 30 27.7395 30.4915 26.834 31.3969C25.9286 32.3023 25.2833 33.5701 25 35"/>
  <path d="M3 26C3 26.7956 3.31607 27.5587 3.87868 28.1213C4.44129 28.6839 5.20435 29 6 29C6.79565 29 7.55871 28.6839 8.12132 28.1213C8.68393 27.5587 9 26.7956 9 26C9 25.2044 8.68393 24.4413 8.12132 23.8787C7.55871 23.3161 6.79565 23 6 23C5.20435 23 4.44129 23.3161 3.87868 23.8787C3.31607 24.4413 3 25.2044 3 26Z"/>
  <path d="M11 35C10.7167 33.5701 10.0714 32.3023 9.16596 31.3969C8.26055 30.4915 7.1466 30 6 30C4.8534 30 3.73945 30.4915 2.83404 31.3969C1.92862 32.3023 1.28332 33.5701 1 35"/>
  <path d="M23 32C19.7562 32 16.2438 32 13 32"/>
  <path d="M25 6C27.4084 7.26755 29.3699 9.30779 30.6002 11.825C31.8305 14.3422 32.2657 17.2055 31.8427 20"/>
  <path d="M4.15722 20C3.73437 17.2052 4.1697 14.3415 5.40008 11.8243C6.63045 9.30698 8.5919 7.26695 11 6"/>
</svg>
